<svg width="35" height="23" viewBox="0 0 35 23" fill="none" xmlns="http://www.w3.org/2000/svg">
<path d="M-1.66893e-06 0.256002H6.4V22.272H-1.66893e-06V0.256002ZM7.744 0.256002H15.872V5.152H7.744V0.256002ZM7.744 8.704H14.368V13.6H7.744V8.704ZM7.744 17.376H15.872V22.272H7.744V17.376ZM27.0147 0.0320015C27.1854 0.0106684 27.4521 1.90735e-06 27.8147 1.90735e-06H28.6467C30.0761 1.90735e-06 31.4734 0.106668 32.8387 0.320002C33.5427 0.426668 34.0867 0.533335 34.4707 0.640001V5.216C34.1507 5.19467 33.6174 5.14134 32.8707 5.056C31.8681 4.94934 30.9934 4.896 30.2467 4.896C29.4147 4.896 28.7427 4.928 28.2307 4.992C27.7401 5.03467 27.3347 5.12 27.0147 5.248V0.0320015ZM28.6467 22.528C26.5134 22.528 24.8174 22.3467 23.5587 21.984C22.3214 21.6 21.3827 20.9707 20.7427 20.096C20.1241 19.264 19.6974 18.1653 19.4627 16.8C19.2494 15.4133 19.1427 13.568 19.1427 11.264C19.1427 9.23734 19.2174 7.59467 19.3667 6.336C19.5374 5.07734 19.8361 4.02134 20.2627 3.168C20.7107 2.29334 21.3614 1.62134 22.2147 1.152C23.0894 0.661336 24.2414 0.330669 25.6707 0.160002V11.264C25.6707 12.4587 25.6921 13.6107 25.7347 14.72C25.7774 15.5733 25.9374 16.2133 26.2147 16.64C26.5134 17.0667 26.9721 17.3333 27.5907 17.44C28.1881 17.568 29.0734 17.632 30.2467 17.632C31.4627 17.632 32.4974 17.5787 33.3507 17.472C33.6921 17.4507 34.1081 17.3973 34.5987 17.312V21.952C33.5534 22.1867 32.3694 22.3467 31.0467 22.432C30.3214 22.496 29.5214 22.528 28.6467 22.528Z" fill="white"/>
</svg>
